<svg xmlns="http://www.w3.org/2000/svg" xmlns:xlink="http://www.w3.org/1999/xlink" width="16" height="15" viewBox="0 0 16 15">
    <defs>
        <path id="prefix__a" d="M4.758 10.593c-.114 0-.227.043-.31.121l.311-.292.31.29c-.083-.076-.194-.119-.308-.119v1.5l-.002-1.5.001 1.5c-.305 0-.598-.112-.82-.318L.34 8.4c-.453-.425-.453-1.113 0-1.538.452-.424 1.187-.424 1.64 0l2.78 2.606 9.259-8.68c.453-.425 1.187-.425 1.64 0 .453.424.453 1.112 0 1.537l-10.08 9.45c-.22.206-.514.318-.818.318l-.003-1.5z"/>
    </defs>
    <g fill="none" fill-rule="evenodd" transform="translate(0 .703)">
        <mask id="prefix__b" fill="#fff">
            <use xlink:href="#prefix__a"/>
        </mask>
        <use fill="#000" fill-rule="nonzero" xlink:href="#prefix__a"/>
        <g fill="currentColor" mask="url(#prefix__b)">
            <path d="M0 0H70.691V66.273H0z" transform="translate(-28 -27.188)"/>
        </g>
    </g>
</svg>
