<svg xmlns="http://www.w3.org/2000/svg" xmlns:xlink="http://www.w3.org/1999/xlink" width="1em" height="1em" viewBox="0 0 19 19">
    <defs>
        <path id="icon-mail__a" d="M17.5 0h-16C.673 0 0 .673 0 1.5v9c0 .827.673 1.5 1.5 1.5h16c.827 0 1.5-.673 1.5-1.5v-9c0-.827-.673-1.5-1.5-1.5zm0 1c.03 0 .058.003.087.008l-7.532 5.021c-.29.193-.819.193-1.109 0L1.414 1.008c.028-.005.057-.008.087-.008h16-.001zm0 10h-16c-.276 0-.5-.224-.5-.5V1.934l7.391 4.927c.311.207.71.311 1.109.311s.798-.104 1.109-.311L18 1.934V10.5c0 .276-.224.5-.5.5z"/>
    </defs>
    <g fill="none" fill-rule="evenodd" transform="translate(0 3.167)">
        <mask id="icon-mail__b" fill="#fff">
            <use xlink:href="#icon-mail__a"/>
        </mask>
        <use fill="currentColor" fill-rule="nonzero" xlink:href="#icon-mail__a"/>
        <g fill="currentColor" mask="url(#icon-mail__b)">
            <path d="M0 0H62.182V62.182H0z" transform="translate(-22.167 -24.542)"/>
        </g>
    </g>
</svg>
