<svg xmlns="http://www.w3.org/2000/svg" xmlns:xlink="http://www.w3.org/1999/xlink" width="1em" height="1em" viewBox="0 0 22 22">
    <defs>
        <path id="icon-invoice__a" d="M2.995.058l1.954.977L6.903.058c.155-.077.336-.077.491 0l1.954.977 1.954-.977c.155-.077.336-.077.491 0l1.954.977 1.954-.977c.155-.077.336-.077.491 0l2.2 1.1c.186.093.304.284.304.491V21.45c0 .19-.099.367-.26.467-.089.055-.189.083-.29.083-.084 0-.168-.019-.246-.058l-1.954-.977-1.954.977c-.155.077-.336.077-.491 0l-1.954-.977-1.954.977c-.155.077-.336.077-.491 0l-1.954-.977-1.954.977c-.155.077-.336.077-.491 0l-1.954-.977-1.954.977c-.17.084-.373.076-.534-.025-.162-.1-.261-.277-.261-.467V1.65c0-.208.118-.4.304-.492l2.2-1.1c.155-.077.336-.077.491 0zm12.95 1.106l-1.954.977c-.155.077-.336.077-.491 0l-1.954-.977-1.954.977c-.155.077-.336.077-.491 0l-1.954-.977-1.954.977c-.155.077-.336.077-.491 0l-1.954-.977-1.65.825V20.56l1.403-.702c.156-.077.337-.077.492 0l1.954.977 1.953-.977c.156-.077.337-.077.492 0l1.954.977 1.953-.977c.077-.038.162-.058.247-.058.085 0 .168.02.246.058l1.954.977 1.954-.977c.155-.077.336-.077.491 0l1.404.702V1.99l-1.65-.826zM9.345 11c.304 0 .55.246.55.55v.55h1.65c.304 0 .55.246.55.55 0 .303-.246.55-.55.55h-3.85v1.1h3.85c.304 0 .55.246.55.55v2.2c0 .303-.246.55-.55.55h-1.65v.55c0 .304-.246.55-.55.55-.303 0-.55-.246-.55-.55v-.55h-1.65c-.303 0-.55-.247-.55-.55 0-.304.247-.55.55-.55h3.85v-1.1h-3.85c-.303 0-.55-.247-.55-.55v-2.2c0-.304.247-.55.55-.55h1.65v-.55c0-.304.247-.55.55-.55zm5.501-2.2c.304 0 .55.246.55.55 0 .303-.246.55-.55.55h-11c-.304 0-.55-.247-.55-.55 0-.304.246-.55.55-.55h11zm0-2.2c.304 0 .55.246.55.55 0 .303-.246.55-.55.55h-11c-.304 0-.55-.247-.55-.55 0-.304.246-.55.55-.55h11zm-2.2-2.2c.304 0 .55.246.55.55 0 .303-.246.55-.55.55h-6.6c-.304 0-.55-.247-.55-.55 0-.304.246-.55.55-.55h6.6z"/>
    </defs>
    <g fill="none" fill-rule="evenodd" transform="translate(1.833)">
        <mask id="icon-invoice__b" fill="#fff">
            <use xlink:href="#icon-invoice__a"/>
        </mask>
        <use fill="currentColor" fill-rule="nonzero" xlink:href="#icon-invoice__a"/>
        <g fill="currentColor" mask="url(#icon-invoice__b)">
            <path d="M0 0H86.4V86.4H0z" transform="translate(-34.833 -32.083)"/>
        </g>
    </g>
</svg>
