<svg xmlns="http://www.w3.org/2000/svg" xmlns:xlink="http://www.w3.org/1999/xlink" width="1em" height="1em" viewBox="0 0 16 16">
    <defs>
        <path id="icon-crown__a" d="M11.624 2.926L8.131.036c-.066-.048-.147-.048-.213 0L4.36 3.009.246.265C.132.184-.015.282.001.412l1.192 12.962c.016.244.228.44.49.44h12.602c.245 0 .457-.196.49-.44L15.999.282c.016-.131-.147-.229-.261-.147l-4.114 2.791zm-7.101 1.11l3.51-2.938 3.444 2.873c.05.049.13.049.196.016l3.281-2.236-.62 6.709H1.65l-.62-6.595 3.28 2.187c.066.05.148.033.213-.016zm-2.465 8.897l-.326-3.575h12.52l-.326 3.575H2.058z"/>
    </defs>
    <g fill="none" fill-rule="evenodd" transform="translate(0 1.333)">
        <mask id="icon-crown__b" fill="#fff">
            <use xlink:href="#icon-crown__a"/>
        </mask>
        <use fill="currentColor" fill-rule="nonzero" xlink:href="#icon-crown__a"/>
        <g fill="currentColor" mask="url(#icon-crown__b)">
            <path d="M0 0H62.836V62.836H0z" transform="translate(-24 -24.667)"/>
        </g>
    </g>
</svg>
