<svg xmlns="http://www.w3.org/2000/svg" xmlns:xlink="http://www.w3.org/1999/xlink" width="1em" height="1em" viewBox="0 0 18 18">
    <defs>
        <path id="icon-search__a" d="M16.882 17.145l-5.318-5.802c1.199-1.253 1.857-2.892 1.857-4.632 0-1.793-.698-3.478-1.966-4.745S8.503 0 6.711 0C4.918 0 3.233.698 1.966 1.966S0 4.918 0 6.71c0 1.792.698 3.477 1.966 4.744s2.952 1.966 4.745 1.966c1.544 0 3.008-.518 4.194-1.472l5.317 5.8c.09.097.209.146.33.146.109 0 .217-.039.303-.117.183-.168.194-.45.028-.632l-.001-.001zM.894 6.711C.894 3.504 3.503.895 6.71.895c3.206 0 5.815 2.609 5.815 5.816 0 3.206-2.609 5.815-5.815 5.815-3.207 0-5.816-2.609-5.816-5.815z"/>
    </defs>
    <g fill="none" fill-rule="evenodd" transform="translate(.75)">
        <mask id="icon-search__b" fill="#fff">
            <use xlink:href="#icon-search__a"/>
        </mask>
        <use fill="currentColor" fill-rule="nonzero" xlink:href="#icon-search__a"/>
        <g fill="currentColor" mask="url(#icon-search__b)">
            <path d="M0 0H72V72H0z" transform="translate(-27 -25)"/>
        </g>
    </g>
</svg>
