<svg xmlns="http://www.w3.org/2000/svg" width="1em" height="1em" viewBox="0 0 21 18">
    <path fill="currentColor" d="M20.333.127c-.144-.129-.349-.163-.527-.088l-19 8c-.192.081-.314.272-.306.48.008.208.144.389.342.455L6.5 10.86v5.64c0 .212.133.4.333.471.055.019.111.029.167.029.148 0 .291-.066.388-.185l2.763-3.401 4.497 4.441c.095.094.221.144.351.144.042 0 .084-.005.125-.016.17-.044.305-.174.355-.343l5-17c.055-.185-.003-.385-.147-.514l.001.001zM16.63 2.461l-9.724 7.48-4.488-1.496L16.63 2.461zM7.5 10.746l9.415-7.242-7.194 8.854-.001.001-2.22 2.733v-4.346zm7.256 5.811l-3.972-3.922 8.033-9.887-4.061 13.808v.001z"/>
</svg>
