<svg xmlns="http://www.w3.org/2000/svg" xmlns:xlink="http://www.w3.org/1999/xlink" width="1em" height="1em" viewBox="0 0 32 32">
    <defs>
        <path id="icon_loading__a" d="M27.314 4.686C24.29 1.664 20.274 0 16 0S7.709 1.664 4.686 4.686C1.664 7.71 0 11.726 0 16s1.664 8.291 4.686 11.314C7.71 30.336 11.726 32 16 32s8.291-1.664 11.314-4.686C30.336 24.29 32 20.274 32 16s-1.664-8.291-4.686-11.314zM14.4 4.8c6.176 0 11.2 5.024 11.2 11.2 0 1.765 1.435 3.2 3.2 3.2.464 0 .904-.1 1.302-.278C28.75 25.466 22.94 30.4 16 30.4 8.06 30.4 1.6 23.94 1.6 16c0-6.307 6.88-11.2 12.8-11.2zM16 1.6c7.94 0 14.4 6.46 14.4 14.4 0 .882-.718 1.6-1.6 1.6-.882 0-1.6-.718-1.6-1.6 0-3.42-1.331-6.634-3.749-9.051C21.034 4.53 17.82 3.2 14.4 3.2c-3.128 0-6.363 1.115-9.02 3.085C8.017 3.408 11.8 1.6 16 1.6z"/>
    </defs>
    <g fill="none" fill-rule="evenodd">
        <mask id="icon_loading__b" fill="currentColor">
            <use xlink:href="#icon_loading__a"/>
        </mask>
        <use fill="#40CA8F" fill-rule="nonzero" xlink:href="#icon_loading__a"/>
        <path fill="currentColor" d="M0 0H32.667V32.667H0z" mask="url(#icon_loading__b)"/>
    </g>
</svg>
