<svg xmlns="http://www.w3.org/2000/svg" xmlns:xlink="http://www.w3.org/1999/xlink" width="1em" height="1em" viewBox="0 0 20 19">
    <defs>
        <path id="icon-plus__a" d="M9.5 0c2.539 0 4.925.988 6.719 2.782C18.013 4.576 19 6.962 19 9.5c0 2.539-.987 4.925-2.782 6.719C14.424 18.012 12.039 19 9.5 19c-2.539 0-4.925-.987-6.719-2.782C.988 14.423 0 12.037 0 9.499c0-2.537.987-4.923 2.782-6.717C4.577.988 6.962 0 9.501 0zm0 1C4.814 1 1 4.813 1 9.5 1 14.189 4.813 18 9.5 18c4.688 0 8.5-3.812 8.5-8.5C18 4.814 14.189 1 9.5 1zm0 2c.277 0 .5.224.5.5V9h5.5c.277 0 .5.224.5.5 0 .277-.223.5-.5.5H10v5.5c0 .277-.223.5-.5.5-.276 0-.5-.223-.5-.5V10H3.5c-.276 0-.5-.223-.5-.5 0-.276.224-.5.5-.5H9V3.5c0-.276.224-.5.5-.5z"/>
    </defs>
    <g fill="none" fill-rule="evenodd" transform="translate(.67)">
        <mask id="icon-plus__b" fill="#fff">
            <use xlink:href="#icon-plus__a"/>
        </mask>
        <use fill="currentColor" fill-rule="nonzero" xlink:href="#icon-plus__a"/>
        <g fill="currentColor" mask="url(#icon-plus__b)">
            <path d="M0 0H74.618V74.618H0z" transform="translate(-28.5 -27.708)"/>
        </g>
    </g>
</svg>
