<svg xmlns="http://www.w3.org/2000/svg" xmlns:xlink="http://www.w3.org/1999/xlink" width="1em" height="1em" viewBox="0 0 21 21">
    <defs>
        <path id="icon-help-circle__a" d="M10.5 0c2.806 0 5.443 1.092 7.426 3.075 1.983 1.983 3.075 4.62 3.075 7.424 0 2.806-1.09 5.443-3.075 7.426C15.942 19.908 13.306 21 10.501 21c-2.806 0-5.443-1.091-7.426-3.075C1.092 15.941 0 13.304 0 10.499c0-2.804 1.091-5.441 3.075-7.424C5.059 1.092 7.695 0 10.501 0zm0 1.105c-5.18 0-9.395 4.215-9.395 9.396 0 5.18 4.215 9.395 9.396 9.395 5.18 0 9.395-4.215 9.395-9.395 0-5.181-4.215-9.396-9.395-9.396zm0 15.475c.306 0 .553.247.553.552v1.106c0 .274-.2.502-.463.545l-.09.007c-.305 0-.552-.247-.552-.552v-1.106c0-.274.2-.502.463-.545l.09-.007zm0-13.264c2.743 0 4.974 2.232 4.974 4.974 0 2.555-1.937 4.668-4.42 4.943v1.689c0 .305-.248.552-.553.552-.306 0-.553-.247-.553-.552v-2.21c0-.306.247-.553.553-.553 2.133 0 3.868-1.736 3.868-3.87 0-2.132-1.735-3.868-3.868-3.868-2.134 0-3.87 1.736-3.87 3.869 0 .305-.247.553-.552.553-.305 0-.552-.248-.552-.553 0-2.742 2.231-4.974 4.974-4.974z"/>
    </defs>
    <g fill="none" fill-rule="evenodd">
        <mask id="icon-help-circle__b" fill="#fff">
            <use xlink:href="#icon-help-circle__a"/>
        </mask>
        <use fill="currentColor" fill-rule="nonzero" xlink:href="#icon-help-circle__a"/>
        <g fill="currentColor" mask="url(#icon-help-circle__b)">
            <path d="M0 0H82.473V82.473H0z" transform="translate(-31.5 -30.625)"/>
        </g>
    </g>
</svg>
