<svg xmlns="http://www.w3.org/2000/svg" xmlns:xlink="http://www.w3.org/1999/xlink" width="1em" height="1em" viewBox="0 0 21 21">
    <defs>
        <path id="icon-gear__a" d="M13.198.017c.972.25 1.906.635 2.775 1.146.252.148.34.47.2.726-.171.316-.262.673-.262 1.036 0 1.193.97 2.164 2.164 2.164.362 0 .72-.09 1.036-.263.256-.14.578-.05.726.201.51.87.896 1.803 1.146 2.775.07.275-.083.557-.352.647-.88.297-1.474 1.121-1.474 2.051 0 .93.592 1.754 1.474 2.05.269.092.422.373.352.648-.25.972-.635 1.906-1.146 2.775-.148.252-.47.34-.726.2-.316-.171-.673-.262-1.036-.262-1.193 0-2.164.97-2.164 2.164 0 .362.09.72.263 1.036.14.256.05.578-.201.726-.87.51-1.803.896-2.775 1.146-.275.07-.557-.083-.647-.352-.297-.88-1.121-1.474-2.051-1.474-.93 0-1.754.592-2.05 1.474-.067.196-.236.332-.43.363L7.937 21l-.066-.004c-.022-.003-.045-.007-.068-.013-.972-.25-1.906-.635-2.775-1.146-.252-.148-.34-.47-.2-.726.171-.316.262-.673.262-1.036 0-1.193-.97-2.164-2.164-2.164-.362 0-.72.09-1.036.263-.256.14-.578.05-.726-.201-.51-.87-.896-1.803-1.146-2.775-.07-.275.083-.557.352-.647.88-.297 1.474-1.121 1.474-2.051 0-.93-.592-1.754-1.474-2.05-.269-.092-.422-.373-.352-.648.25-.972.635-1.906 1.146-2.775.148-.252.47-.34.726-.2.315.171.673.262 1.036.262 1.193 0 2.164-.97 2.164-2.164 0-.362-.09-.72-.263-1.036-.14-.256-.05-.578.201-.726C5.897.653 6.83.267 7.802.017c.275-.07.557.083.647.352.297.88 1.121 1.474 2.051 1.474.93 0 1.754-.592 2.05-1.474.092-.269.374-.422.648-.352zm.176 1.173c-.554 1.054-1.652 1.734-2.873 1.734-1.22 0-2.318-.68-2.873-1.734-.563.173-1.11.4-1.634.673.117.34.177.7.177 1.06 0 1.79-1.456 3.247-3.246 3.247-.362 0-.72-.06-1.06-.177-.275.524-.5 1.07-.674 1.634 1.054.554 1.734 1.652 1.734 2.873 0 1.22-.68 2.318-1.734 2.873.173.563.4 1.11.673 1.634.34-.117.7-.177 1.06-.177 1.79 0 3.247 1.456 3.247 3.246 0 .362-.06.721-.177 1.06.524.275 1.07.5 1.634.674.554-1.054 1.652-1.734 2.873-1.734 1.22 0 2.318.68 2.873 1.734.563-.174 1.11-.4 1.634-.673-.117-.34-.177-.7-.177-1.06 0-1.79 1.456-3.247 3.246-3.247.362 0 .721.06 1.06.177.275-.524.5-1.07.674-1.634-1.054-.554-1.734-1.652-1.734-2.873 0-1.22.68-2.318 1.734-2.873-.174-.563-.4-1.11-.673-1.634-.34.117-.7.177-1.06.177-1.79 0-3.247-1.456-3.247-3.246 0-.362.06-.721.177-1.06-.523-.275-1.07-.5-1.634-.674zm-2.873 6.065c1.79 0 3.247 1.456 3.247 3.246s-1.457 3.247-3.247 3.247c-1.79 0-3.246-1.457-3.246-3.247 0-1.79 1.456-3.246 3.246-3.246zm0 1.082c-1.194 0-2.164.97-2.164 2.164 0 1.194.97 2.164 2.164 2.164 1.194 0 2.164-.97 2.164-2.164 0-1.194-.97-2.164-2.164-2.164z"/>
    </defs>
    <g fill="none" fill-rule="evenodd">
        <g transform="translate(0 -1) translate(0 1)">
            <mask id="icon-gear__b" fill="#fff">
                <use xlink:href="#icon-gear__a"/>
            </mask>
            <use fill="currentColor" fill-rule="nonzero" xlink:href="#icon-gear__a"/>
            <g fill="currentColor" mask="url(#icon-gear__b)">
                <path d="M0 0H82.473V82.473H0z" transform="translate(-31.5 -30.625)"/>
            </g>
        </g>
    </g>
</svg>
