<svg xmlns="http://www.w3.org/2000/svg" xmlns:xlink="http://www.w3.org/1999/xlink" width="1em" height="1em" viewBox="0 0 19 20">
    <defs>
        <path id="icon-trash__a" d="M8.075 0C8.861 0 9.5.64 9.5 1.425V1.9h3.325c.786 0 1.425.64 1.425 1.425v.95c0 .62-.397 1.148-.95 1.343v11.957c0 .786-.64 1.425-1.425 1.425h-9.5C1.589 19 .95 18.36.95 17.575V5.618C.397 5.423 0 4.894 0 4.275v-.95C0 2.539.64 1.9 1.425 1.9H4.75v-.475C4.75.639 5.39 0 6.175 0zm4.275 5.7H1.9v11.875c0 .262.213.475.475.475h9.5c.262 0 .475-.213.475-.475V5.7zm-2.375.95c.262 0 .475.213.475.475v9.5c0 .262-.213.475-.475.475s-.475-.213-.475-.475v-9.5c0-.262.213-.475.475-.475zm-2.85 0c.262 0 .475.213.475.475v9.5c0 .262-.213.475-.475.475s-.475-.213-.475-.475v-9.5c0-.262.213-.475.475-.475zm-2.85 0c.262 0 .475.213.475.475v9.5c0 .262-.213.475-.475.475s-.475-.213-.475-.475v-9.5c0-.262.213-.475.475-.475zm8.55-3.8h-11.4c-.262 0-.475.213-.475.475v.95c0 .262.213.475.475.475h11.4c.262 0 .475-.213.475-.475v-.95c0-.262-.213-.475-.475-.475zM8.075.95h-1.9c-.262 0-.475.213-.475.475V1.9h2.85v-.475c0-.262-.213-.475-.475-.475z"/>
    </defs>
    <g fill="none" fill-rule="evenodd" transform="translate(2.375 .236)">
        <mask id="icon-trash__b" fill="#fff">
            <use xlink:href="#icon-trash__a"/>
        </mask>
        <use fill="currentColor" fill-rule="nonzero" xlink:href="#icon-trash__a"/>
        <g fill="currentColor" mask="url(#icon-trash__b)">
            <path d="M0 0H76V76H0z" transform="translate(-30.083 -26.125)"/>
        </g>
    </g>
</svg>
