<svg xmlns="http://www.w3.org/2000/svg" xmlns:xlink="http://www.w3.org/1999/xlink" width="1em" height="1em" viewBox="0 0 21 21">
    <defs>
        <path id="icon-chart__a" d="M3.868 12.159c.305 0 .553.247.553.552v7.737c0 .305-.248.553-.553.553H.553C.248 21 0 20.753 0 20.448v-7.737c0-.305.248-.552.553-.552h3.315zm5.527-3.316c.305 0 .552.247.552.552v11.053c0 .305-.247.553-.552.553H6.079c-.305 0-.553-.248-.553-.553V9.395c0-.305.248-.552.553-.552h3.316zm5.526 1.105c.305 0 .553.248.553.553v9.947c0 .305-.248.553-.553.553h-3.316c-.305 0-.552-.248-.552-.553v-9.947c0-.305.247-.553.552-.553h3.316zm5.526-4.421c.305 0 .553.248.553.553v14.368c0 .305-.248.553-.553.553h-3.316c-.305 0-.552-.248-.552-.553V6.08c0-.305.247-.553.552-.553h3.316zM3.316 13.264h-2.21v6.631h2.21v-6.631zm5.526-3.316h-2.21v9.947h2.21V9.948zm5.526 1.105h-2.21v8.842h2.21v-8.842zm5.527-4.42h-2.21v13.262h2.21V6.632zM19.167.027c.2-.066.418-.014.566.134.146.147.198.366.132.565l-1.106 3.316c-.077.23-.292.378-.523.378-.058 0-.118-.01-.175-.03-.29-.095-.445-.408-.35-.698l.365-1.095-4.747 4.747c-.629.63-1.677.703-2.388.17l-2.653-1.99c-.28-.21-.786-.2-1.057.023L2.007 9.822c-.103.084-.226.125-.35.125-.16 0-.317-.069-.427-.202-.193-.237-.159-.585.078-.778L6.53 4.693c.668-.546 1.732-.569 2.422-.051l2.652 1.99c.268.2.709.167.944-.068l4.747-4.747-1.095.364c-.289.098-.601-.06-.699-.349-.097-.29.06-.602.35-.698z"/>
    </defs>
    <g fill="none" fill-rule="evenodd">
        <mask id="icon-chart__b" fill="#fff">
            <use xlink:href="#icon-chart__a"/>
        </mask>
        <use fill="currentColor" fill-rule="nonzero" xlink:href="#icon-chart__a"/>
        <g fill="currentColor" mask="url(#icon-chart__b)">
            <path d="M0 0H82.473V82.473H0z" transform="translate(-31.5 -30.625)"/>
        </g>
    </g>
</svg>
