<svg xmlns="http://www.w3.org/2000/svg" width="280" height="40" viewBox="0 0 280 40">
    <g fill="none">
        <path fill="#FED77F" d="M21.028 39.847L42.056 26.569 21.028 13.278z"/>
        <path fill="#62D4A3" d="M21.028 13.278L0 0 0 26.569 21.028 39.847z"/>
        <path fill="#527EDD" d="M29.89 26.57c0 4.86-3.962 8.791-8.862 8.791V17.805c4.9-.027 8.862 3.903 8.862 8.764z"/>
        <g fill="#FFF">
            <path d="M11.956 7.472L8.428 5.264 8.428 9.722 11.956 11.944zM3.64 2.236L.126.028.126 4.472 3.64 6.694zM7.798 4.847L4.27 2.639 4.27 7.097 7.798 9.319z" transform="translate(4.48 25)"/>
        </g>
        <g fill="#4C566F">
            <path d="M13.916 26.639C5.11 26.639.126 20.944.126 13.25.126 4.917 4.998.028 13.734.028c5.614 0 7.826 1.208 7.826 1.208v3.222s-2.66-1.43-7.7-1.43c-5.39 0-10.192 2.416-10.192 9.889 0 7.416 4.984 10.639 10.948 10.639 4.578 0 7.014-1.098 7.014-1.098l.056 3.098c0 .055-2.898 1.083-7.77 1.083zM33.726 26.639c-1.918 0-7.644-.056-7.644-.056V.153s4.116-.056 6.72-.056c5.208 0 8.512 2.18 8.512 6.153 0 4.833-3.878 5.972-3.878 5.972s5.796.917 5.796 6.722c0 4.653-3.304 7.695-9.506 7.695zm-1.68-24.014c-1.218 0-2.716.056-2.716.056v8.5s1.274.11 3.01.11c3.654 0 5.278-2.124 5.278-4.485.056-2.917-1.974-4.181-5.572-4.181zM31.934 14c-1.274 0-2.548.056-2.548.056v9.597s2.142.166 4.004.166c3.304 0 6.09-1.027 6.09-4.763C39.466 15.375 36.512 14 31.934 14zM67.97 26.639c-2.786 0-4.928-1.556-7.42-4.486-2.086-2.528-4.578-5.972-4.578-5.972s-.518.055-.812.055c-1.106 0-4.34-.111-4.34-.111v10.57h-3.304V.096s4.928-.055 7.532-.055c3.766 0 6.146.916 7.644 2.472C63.966 3.889 64.54 5.68 64.54 7.75c0 4.194-2.548 6.556-5.152 7.583.868 1.264 2.142 2.93 3.71 4.598 3.192 3.388 4.34 3.972 5.796 3.972.406 0 .7-.056.7-.056v2.64c.056-.015-.756.152-1.624.152zM59.626 4.347c-1.106-1.153-2.786-1.61-5.278-1.61-1.624 0-3.528.055-3.528.055V13.25s2.66.111 3.822.111c2.086 0 3.528-.347 4.634-1.43.924-.862 1.68-2.181 1.68-3.973.056-1.486-.406-2.75-1.33-3.61z" transform="translate(50.68 13.194)"/>
        </g>
        <g fill="#4C566F">
            <path d="M14.322 26.639h-1.848v-2.82c-.812 1.32-2.898 2.82-5.502 2.82-3.528 0-6.888-2.82-6.888-8.333 0-6.098 4.466-9.25 9.38-9.25 2.086 0 2.842.402 2.842.402V4.403c-1.162-.167-2.086-.64-2.898-.917V1.764c1.568-.292 4.34-1.153 5.446-1.722h1.974v22.18c1.162.167 2.086.64 2.898.917v1.722c-1.568.347-4.354 1.153-5.404 1.778zm-2.016-14.542c-.812-.458-1.386-.75-2.66-.75-2.548 0-4.802 1.556-4.802 5.917 0 4.889 2.66 5.972 4.578 5.972 2.198 0 2.954-1.375 2.954-1.375v-9.764h-.07zM30.03 26.639c-5.152 0-9.044-2.695-9.044-8.736 0-5.111 3.822-8.903 9.38-8.903 6.09 0 9.044 3.444 9.044 8.736-.056 5.514-4.452 8.903-9.38 8.903zm.294-15.278c-3.598 0-4.41 3.333-4.41 6.375 0 3.333.812 6.556 4.172 6.556 3.36 0 4.284-3.167 4.284-6.5.056-2.584-.63-6.43-4.046-6.43zM48.916 26.583c-4.634 0-8.05-3.097-8.05-8.57 0-5.75 4.928-9.027 8.862-9.027 3.822 0 5.796 1.722 6.202 2.07l-2.436 3.097c-.868-.806-2.604-2.236-4.746-2.236-1.68 0-3.472 1.208-3.472 4.833 0 4.43 2.548 6.43 5.502 6.43 1.974 0 3.528-.75 4.466-1.666l.924 1.833c-.994 1.167-3.43 3.236-7.252 3.236z" transform="translate(124.6 13.194)"/>
        </g>
        <path fill="#4C566F" d="M189.504 13.292H190.504V39.848H189.504z"/>
        <g fill="#4C566F">
            <path d="M3.934 8.208c-2.436 0-3.822-1.555-3.822-3.68 0-2.306 1.33-3.625 3.766-3.625 1.568 0 2.142.347 2.142.347v.861s-.756-.403-2.142-.403c-1.512 0-2.786.64-2.786 2.695 0 2.07 1.386 2.93 3.01 2.93 1.274 0 1.918-.291 1.918-.291v.86c.056.015-.742.306-2.086.306zM8.162 5.736c0 1.028.7 1.778 1.736 1.778.924 0 1.568-.514 1.568-.514v.806s-.574.458-1.736.458c-1.33 0-2.38-.917-2.38-2.639 0-1.556.98-2.472 2.254-2.472s1.918 1.028 1.918 2.236v.347h-3.36zm1.274-1.889c-.7 0-1.162.459-1.218 1.209h2.254c.014-.806-.392-1.209-1.036-1.209zM16.45 8.153V6.486 5.278c0-.695-.168-1.375-1.106-1.375-.756 0-1.162.347-1.274.514v3.736h-.812V3.208h.812v.514s.574-.57 1.568-.57c1.624 0 1.624 1.556 1.68 1.96v3.04h-.868zM20.804 8.153c-1.218 0-1.442-.64-1.442-1.556 0-.403.056-2.528.056-2.528h-.7v-.75h.7v-.972l.812-.11v1.096h1.512v.75H20.23s-.056 1.5-.056 2.417c0 .75.238.917.756.917.462 0 .868-.236.868-.236v.75c.042-.014-.364.222-.994.222zM26.012 4.07s-.238-.112-.7-.112c-.868 0-1.106.514-1.218.64v3.569h-.812V3.222h.812v.64c.168-.237.518-.75 1.33-.75.406 0 .644.11.644.11l-.056.847zM31.052 8.153s-.168.055-.518.055c-.574 0-.756-.514-.756-.514s-.462.57-1.274.57c-.756 0-1.512-.403-1.512-1.375 0-1.32 1.624-1.5 2.086-1.556.35-.055.574-.055.574-.055v-.236c0-.75-.238-1.153-.98-1.153-.756 0-1.274.57-1.274.57l-.112-.75s.644-.57 1.624-.57c.98 0 1.624.458 1.624 1.5v1.958c0 .514.056.917.518.917h.294l-.294.639zm-2.198-2.18c-.462.055-1.036.29-1.036.86 0 .514.406.75.868.75.644 0 .98-.458.98-.458V5.917c0-.07-.35-.07-.812.055zM32.676 8.153L32.676.111 33.488.111 33.488 8.153zM40.32 8.153h-2.086V.973h1.792c1.386 0 2.324.569 2.324 1.666 0 1.32-1.036 1.611-1.036 1.611s1.568.236 1.568 1.833c-.014 1.264-.882 2.07-2.562 2.07zm-.462-6.5h-.756v2.305s.35.056.812.056c.98 0 1.442-.57 1.442-1.208.014-.806-.518-1.153-1.498-1.153zm0 3.11h-.7v2.584s.574.056 1.106.056c.868 0 1.624-.292 1.624-1.264 0-1.028-.812-1.375-2.03-1.375zM47.502 4.07s-.238-.112-.7-.112c-.868 0-1.106.514-1.218.64v3.569h-.812V3.222h.812v.64c.168-.237.518-.75 1.33-.75.406 0 .644.11.644.11l-.056.847zM52.542 8.153s-.168.055-.518.055c-.574 0-.756-.514-.756-.514s-.462.57-1.274.57c-.756 0-1.512-.403-1.512-1.375 0-1.32 1.624-1.5 2.086-1.556.35-.055.574-.055.574-.055v-.236c0-.75-.238-1.153-.98-1.153-.756 0-1.274.57-1.274.57l-.112-.75s.644-.57 1.624-.57c.98 0 1.624.458 1.624 1.5v1.958c0 .514.056.917.518.917h.294l-.294.639zm-2.198-2.18c-.462.055-1.036.29-1.036.86 0 .514.406.75.868.75.644 0 .98-.458.98-.458V5.917c0-.07-.35-.07-.812.055zM55.384 8.208c-1.036 0-1.568-.236-1.568-.236v-.805s.756.291 1.386.291c.756 0 1.106-.236 1.106-.639 0-.458-.462-.638-1.162-.86-.812-.292-1.274-.64-1.274-1.431 0-1.028.868-1.375 1.792-1.375.756 0 1.218.236 1.218.236l-.056.75s-.518-.292-1.218-.292c-.574 0-.868.167-.868.57 0 .402.238.57.98.86.756.237 1.512.515 1.512 1.431.014 1.209-1.204 1.5-1.848 1.5zM59.318 2c-.294 0-.574-.236-.574-.514 0-.347.294-.514.574-.514.28 0 .574.236.574.514.014.292-.28.514-.574.514zm-.392 6.153V3.208h.812v4.945h-.812zM61.81 8.153L61.81.111 62.622.111 62.622 8.153zM65.17 5.736c0 1.028.7 1.778 1.736 1.778.924 0 1.568-.514 1.568-.514v.806s-.574.458-1.736.458c-1.33 0-2.38-.917-2.38-2.639 0-1.556.98-2.472 2.254-2.472S68.53 4.18 68.53 5.389v.347h-3.36zm1.344-1.889c-.7 0-1.162.459-1.218 1.209h2.254c-.056-.806-.406-1.209-1.036-1.209zM70.686 2c-.294 0-.574-.236-.574-.514 0-.347.294-.514.574-.514.28 0 .574.236.574.514 0 .292-.294.514-.574.514zm-.476 6.153V3.208h.812v4.945h-.812zM76.006 4.07s-.238-.112-.7-.112c-.868 0-1.106.514-1.218.64v3.569h-.812V3.222h.812v.64c.168-.237.518-.75 1.33-.75.406 0 .644.11.644.11l-.056.847zM81.046 8.153s-.168.055-.518.055c-.574 0-.756-.514-.756-.514s-.462.57-1.274.57c-.756 0-1.512-.403-1.512-1.375 0-1.32 1.624-1.5 2.086-1.556.35-.055.574-.055.574-.055v-.236c0-.75-.238-1.153-.98-1.153-.756 0-1.274.57-1.274.57l-.112-.75s.644-.57 1.624-.57c.98 0 1.624.458 1.624 1.5v1.958c0 .514.056.917.518.917h.294l-.294.639zm-2.198-2.18c-.462.055-1.036.29-1.036.86 0 .514.406.75.868.75.644 0 .98-.458.98-.458V5.917c0-.07-.35-.07-.812.055zM3.71 20.68v-.458s-.462.514-1.512.514c-.98 0-2.03-.75-2.03-2.417 0-1.902 1.274-2.638 2.436-2.638.756 0 1.106.236 1.106.236v-3.278h.812v8.042H3.71zm0-3.902s-.35-.292-1.106-.292c-.98 0-1.568.75-1.568 1.903 0 1.028.574 1.778 1.442 1.778.812 0 1.218-.459 1.218-.459v-2.93h.014zM7.07 18.264c0 1.028.7 1.778 1.736 1.778.924 0 1.568-.514 1.568-.514v.805s-.574.459-1.736.459c-1.33 0-2.38-.917-2.38-2.64 0-1.555.98-2.471 2.254-2.471s1.918 1.027 1.918 2.236v.347H7.07zm1.274-1.833c-.7 0-1.162.458-1.218 1.208H9.38c0-.806-.336-1.208-1.036-1.208zM20.216 19.708c-.7.695-1.568 1.028-3.066 1.028-.924 0-2.436-.055-2.436-.055v-7.125h2.38c1.568 0 2.548.347 3.248 1.097.518.57.812 1.375.812 2.416.056 1.084-.294 2-.938 2.64zm-.63-4.486c-.574-.694-1.442-.916-2.548-.916-.812 0-1.442.055-1.442.055v5.514s.7.056 1.624.056c1.848 0 2.954-.973 2.954-2.82.042-.792-.182-1.43-.588-1.889zM24.976 20.792c-1.33 0-2.324-.917-2.324-2.528 0-1.667 1.106-2.583 2.436-2.583 1.442 0 2.38.86 2.38 2.527-.07 1.723-1.218 2.584-2.492 2.584zm.056-4.361c-1.106 0-1.512.916-1.512 1.777 0 .973.462 1.834 1.512 1.834 1.106 0 1.512-.861 1.512-1.834-.014-.86-.364-1.777-1.512-1.777zM32.494 17.056s-.644-.64-1.512-.64c-.7 0-1.386.515-1.386 1.723 0 1.208.7 1.833 1.624 1.833.924 0 1.512-.514 1.512-.514v.75s-.574.459-1.736.459c-1.218 0-2.254-.917-2.254-2.64 0-1.61 1.162-2.471 2.38-2.471 1.162 0 1.736.638 1.736.638l-.364.862zM37.478 20.68v-.569s-.574.639-1.568.639c-1.568 0-1.624-1.32-1.624-2.014V15.75h.812v2.82c0 .916.238 1.43 1.106 1.43.7 0 1.162-.403 1.274-.514V15.75h.812v4.944h-.812v-.013zM46.984 20.68v-1.666-1.208c0-.695-.168-1.375-1.106-1.375-.7 0-1.106.291-1.33.513 0 0 .056.292.056.64v3.041h-.812v-1.667-1.208c0-.694-.168-1.375-1.106-1.375-.756 0-1.162.347-1.274.514v3.736H40.6v-4.944h.812v.513s.574-.569 1.568-.569c.756 0 1.162.347 1.386.75.238-.167.868-.75 1.792-.75 1.624 0 1.624 1.556 1.68 1.958v3.042h-.868v.056h.014zM50.344 18.264c0 1.028.7 1.778 1.736 1.778.924 0 1.568-.514 1.568-.514v.805s-.574.459-1.736.459c-1.33 0-2.38-.917-2.38-2.64 0-1.555.98-2.471 2.254-2.471s1.918 1.027 1.918 2.236v.347h-3.36zm1.274-1.833c-.7 0-1.162.458-1.218 1.208h2.254c-.056-.806-.392-1.208-1.036-1.208zM58.632 20.68v-1.666-1.208c0-.695-.168-1.375-1.106-1.375-.756 0-1.162.347-1.274.513v3.737h-.812v-4.945h.812v.514s.574-.57 1.568-.57c1.624 0 1.624 1.556 1.68 1.959v3.042h-.868zM62.972 20.68c-1.218 0-1.442-.638-1.442-1.555 0-.403.056-2.528.056-2.528h-.7v-.75h.7v-.972l.812-.111v1.097h1.512v.75h-1.512s-.056 1.5-.056 2.417c0 .75.238.916.756.916.462 0 .868-.236.868-.236v.75c.056 0-.406.223-.994.223zM67.326 20.792c-1.33 0-2.324-.917-2.324-2.528 0-1.667 1.106-2.583 2.436-2.583 1.442 0 2.38.86 2.38 2.527-.07 1.723-1.218 2.584-2.492 2.584zm.056-4.361c-1.106 0-1.512.916-1.512 1.777 0 .973.462 1.834 1.512 1.834 1.106 0 1.512-.861 1.512-1.834-.014-.86-.364-1.777-1.512-1.777zM72.59 20.792c-1.036 0-1.568-.236-1.568-.236v-.806s.756.292 1.386.292c.756 0 1.106-.236 1.106-.64 0-.458-.462-.638-1.162-.86-.812-.292-1.274-.64-1.274-1.43 0-1.029.868-1.376 1.792-1.376.756 0 1.218.236 1.218.236l-.056.75s-.518-.291-1.218-.291c-.574 0-.868.166-.868.569 0 .403.238.57.98.861.756.236 1.512.514 1.512 1.43-.056 1.223-1.204 1.5-1.848 1.5z" transform="translate(198.66 16.111)"/>
        </g>
    </g>
</svg>
