<svg xmlns="http://www.w3.org/2000/svg" width="99" height="74" viewBox="0 0 99 74">
    <g fill="none">
        <g>
            <path fill="#FED77F" d="M25 46.98L50 31.337 25 15.683z" transform="translate(25)"/>
            <path fill="#62D4A3" d="M25 15.683L0 0.039 0 31.337 25 46.98z" transform="translate(25)"/>
            <path fill="#527EDD" d="M35.54 31.337C35.54 37.059 30.82 41.7 25 41.7V21.022c5.82-.049 10.54 4.592 10.54 10.315z" transform="translate(25)"/>
            <g fill="#FFF">
                <path d="M14.13 8.8L9.94 6.195 9.94 11.445 14.13 14.061zM4.26 2.615L.07.02.07 5.26 4.26 7.886zM9.2 5.713L5.01 3.107 5.01 8.348 9.2 10.973z" transform="translate(25) translate(5.4 29.498)"/>
            </g>
        </g>
        <g fill="#4C566F">
            <path d="M10.478 20.96C3.825 20.96 0 16.485 0 10.45 0 3.874 3.696.07 10.34.07c4.259 0 5.954.943 5.954.943V3.52s-2.04-1.116-5.865-1.116c-4.08 0-7.738 1.877-7.738 7.74 0 5.865 3.785 8.37 8.3 8.37 3.48 0 5.303-.852 5.303-.852l.04 2.466c.049-.02-2.169.831-5.856.831zM25.471 20.96c-1.439 0-5.825-.041-5.825-.041V.122s3.124-.04 5.086-.04c3.953 0 6.476 1.704 6.476 4.828 0 3.754-2.908 4.738-2.908 4.738s4.387.72 4.387 5.275c0 3.622-2.484 6.036-7.216 6.036zM24.25 2.08c-.917 0-2.04.04-2.04.04v6.706s.956.091 2.257.091c2.74 0 4.002-1.653 4.002-3.53 0-2.364-1.518-3.307-4.219-3.307zm-.089 8.948c-.956 0-1.951.04-1.951.04v7.518s1.606.131 3.045.131c2.475 0 4.604-.801 4.604-3.753 0-2.861-2.257-3.936-5.698-3.936zM51.455 20.96c-2.129 0-3.736-1.208-5.609-3.531-1.606-1.968-3.48-4.697-3.48-4.697s-.393.04-.61.04c-.828 0-3.263-.09-3.263-.09V21h-2.524V.112S39.705.07 41.667.07c2.829 0 4.653.72 5.776 1.968.956 1.075 1.44 2.465 1.44 4.119 0 3.267-1.952 5.143-3.914 5.945.7.984 1.607 2.323 2.83 3.622 2.434 2.688 3.301 3.084 4.386 3.084.305 0 .522-.04.522-.04v2.059c.01 0-.591.131-1.252.131zM45.117 3.377c-.828-.892-2.13-1.248-4.002-1.248-1.262 0-2.652.041-2.652.041v8.228s2.001.09 2.908.09c1.568 0 2.652-.263 3.52-1.115.7-.72 1.261-1.745 1.261-3.135.01-1.156-.345-2.14-1.035-2.86z" transform="translate(0 53)"/>
            <g>
                <path d="M10.813 20.919h-1.39v-2.232c-.61 1.025-2.217 2.232-4.169 2.232-2.652 0-5.215-2.232-5.215-6.533C.04 9.597 3.43 7.09 7.166 7.09c1.568 0 2.13.315 2.13.315V3.47c-.868-.132-1.607-.498-2.218-.72V1.41C8.25 1.187 10.38.517 11.208.071h1.478v17.45c.868.131 1.607.496 2.218.72v1.339c-1.183.213-3.262.882-4.09 1.339zM9.295 9.506c-.61-.355-1.084-.578-2.04-.578-1.912 0-3.647 1.207-3.647 4.656 0 3.845 2 4.697 3.48 4.697 1.695 0 2.217-1.075 2.217-1.075l-.01-7.7zM22.721 20.96c-3.913 0-6.87-2.151-6.87-6.889 0-4.028 2.907-7.02 7.087-7.02 4.603 0 6.821 2.729 6.821 6.888.05 4.332-3.302 7.02-7.038 7.02zm.256-12.032c-2.74 0-3.302 2.597-3.302 5.052 0 2.597.611 5.184 3.174 5.184 2.524 0 3.263-2.465 3.263-5.103-.04-2.09-.562-5.133-3.135-5.133zM37.064 20.919c-3.52 0-6.082-2.415-6.082-6.757 0-4.514 3.736-7.07 6.693-7.07 2.908 0 4.386 1.338 4.692 1.612l-1.824 2.415c-.65-.63-1.952-1.786-3.568-1.786-1.301 0-2.652.944-2.652 3.805 0 3.49 1.913 5.052 4.17 5.052 1.478 0 2.651-.578 3.39-1.34l.7 1.431c-.827.974-2.651 2.638-5.52 2.638z" transform="translate(0 53) translate(55.99)"/>
            </g>
        </g>
    </g>
</svg>
