<svg xmlns="http://www.w3.org/2000/svg" width="153" height="34" viewBox="0 0 153 34">
    <g fill="none">
        <g>
            <path fill="#FED77F" d="M17.787 33.87L35.574 22.584 17.787 11.286z"/>
            <path fill="#62D4A3" d="M17.787 11.286L0 0 0 22.584 17.787 33.87z"/>
            <path fill="#527EDD" d="M25.283 22.584c0 4.132-3.351 7.473-7.496 7.473V15.135c4.145-.024 7.496 3.317 7.496 7.449z"/>
            <g fill="#FFF">
                <path d="M10.113 6.351L7.129 4.474 7.129 8.264 10.113 10.153zM3.079 1.901L.107.024.107 3.801 3.079 5.69zM6.596 4.12L3.612 2.243 3.612 6.033 6.596 7.922z" transform="translate(3.79 21.25)"/>
            </g>
        </g>
        <g fill="#FFF">
            <path d="M11.771 22.643c-7.449 0-11.664-4.84-11.664-11.38 0-7.084 4.12-11.24 11.51-11.24 4.749 0 6.62 1.028 6.62 1.028V3.79s-2.25-1.216-6.513-1.216c-4.56 0-8.621 2.054-8.621 8.405 0 6.304 4.215 9.043 9.26 9.043 3.873 0 5.933-.932 5.933-.932l.047 2.632c0 .047-2.45.921-6.572.921zM28.528 22.643c-1.623 0-6.466-.047-6.466-.047V.13s3.481-.047 5.684-.047c4.405 0 7.2 1.853 7.2 5.23 0 4.108-3.28 5.076-3.28 5.076s4.902.78 4.902 5.714c0 3.955-2.794 6.54-8.04 6.54zM27.107 2.231c-1.03 0-2.298.047-2.298.047v7.225s1.078.095 2.546.095c3.091 0 4.465-1.806 4.465-3.813.047-2.48-1.67-3.554-4.713-3.554zm-.095 9.669c-1.078 0-2.155.047-2.155.047v8.158s1.811.142 3.386.142c2.795 0 5.152-.874 5.152-4.05-.012-3.128-2.51-4.297-6.383-4.297zM57.493 22.643c-2.356 0-4.168-1.322-6.276-3.813-1.764-2.149-3.872-5.077-3.872-5.077s-.438.048-.687.048c-.936 0-3.671-.095-3.671-.095v8.984h-2.795V.083s4.169-.048 6.371-.048c3.186 0 5.199.78 6.466 2.102 1.078 1.169 1.563 2.691 1.563 4.45 0 3.566-2.155 5.573-4.358 6.446.734 1.075 1.812 2.491 3.138 3.908 2.7 2.88 3.671 3.376 4.903 3.376.343 0 .592-.047.592-.047v2.243c.047-.012-.64.13-1.374.13zM50.436 3.695c-.936-.98-2.357-1.37-4.465-1.37-1.374 0-2.984.048-2.984.048v8.89s2.25.094 3.233.094c1.764 0 2.984-.295 3.92-1.216.781-.732 1.42-1.854 1.42-3.376.048-1.264-.343-2.338-1.124-3.07z" transform="translate(42.868 11.215)"/>
        </g>
        <g fill="#FFF">
            <path d="M12.114 22.643h-1.563v-2.396c-.687 1.121-2.451 2.396-4.654 2.396-2.984 0-5.826-2.396-5.826-7.083 0-5.183 3.778-7.863 7.934-7.863 1.765 0 2.404.343 2.404.343V3.742c-.983-.141-1.764-.543-2.451-.779V1.5c1.326-.248 3.67-.98 4.606-1.464h1.67V18.89c.983.142 1.765.543 2.452.78v1.463c-1.327.295-3.683.98-4.572 1.511zm-1.705-12.36c-.687-.39-1.172-.638-2.25-.638-2.155 0-4.062 1.322-4.062 5.03 0 4.155 2.25 5.076 3.873 5.076 1.859 0 2.498-1.17 2.498-1.17v-8.298h-.059zM25.401 22.643c-4.358 0-7.65-2.29-7.65-7.426 0-4.344 3.233-7.567 7.935-7.567 5.15 0 7.65 2.928 7.65 7.426-.048 4.686-3.766 7.567-7.935 7.567zm.249-12.986c-3.043 0-3.73 2.833-3.73 5.419 0 2.833.687 5.572 3.529 5.572 2.842 0 3.623-2.692 3.623-5.525.048-2.196-.533-5.466-3.422-5.466zM41.376 22.596c-3.92 0-6.809-2.633-6.809-7.284 0-4.888 4.169-7.674 7.496-7.674 3.233 0 4.903 1.464 5.246 1.76l-2.06 2.632c-.735-.685-2.203-1.9-4.015-1.9-1.42 0-2.937 1.026-2.937 4.107 0 3.766 2.156 5.466 4.654 5.466 1.67 0 2.985-.637 3.778-1.416l.782 1.558c-.841.992-2.902 2.75-6.135 2.75z" transform="translate(105.395 11.215)"/>
        </g>
    </g>
</svg>
