<svg xmlns="http://www.w3.org/2000/svg" width="150" height="131" viewBox="0 0 150 131">
    <g fill="none">
        <g fill="#FFF">
            <path d="M3.587 7.736C1.304 7.736.059 6.22.059 4.255.06 2.083 1.304.848 3.587.848c1.437 0 2.03.327 2.03.327v.848s-.726-.387-1.956-.387c-1.379 0-2.624.655-2.624 2.56 0 1.904 1.305 2.752 2.816 2.752 1.171 0 1.764-.268 1.764-.268v.788c-.074 0-.786.268-2.03.268zM7.514 5.37c0 .983.652 1.637 1.63 1.637.919 0 1.438-.461 1.438-.461v.729s-.519.387-1.63.387c-1.245 0-2.224-.848-2.224-2.5 0-1.502.92-2.365 2.09-2.365s1.764.982 1.764 2.098v.327H7.514v.149zm1.17-1.77c-.651 0-1.052.387-1.11 1.116h2.089c0-.729-.326-1.116-.978-1.116zM15.22 7.662V6.085 4.969c0-.655-.192-1.25-1.052-1.25-.726 0-1.111.328-1.17.461v3.556h-.786V3.08h.785v.52s.52-.595 1.438-.595c1.571 0 1.571 1.443 1.571 1.845v2.886h-.785v-.074zM19.281 7.662c-1.111 0-1.378-.595-1.378-1.443 0-.387.06-2.366.06-2.366h-.653V3.2h.652v-.923l.786-.134V3.2h1.437v.654h-1.437v2.291c0 .73.192.848.726.848.46 0 .845-.193.845-.193v.729c-.06-.06-.445.134-1.038.134zM24.187 3.794s-.267-.134-.652-.134c-.845 0-1.053.461-1.112.595v3.347h-.785V2.946h.785V3.6c.134-.193.46-.729 1.245-.729.385 0 .593.134.593.134l-.074.789zM28.9 7.662s-.193.06-.519.06c-.593 0-.726-.521-.726-.521s-.386.52-1.171.52c-.726 0-1.378-.387-1.378-1.309 0-1.25 1.497-1.384 1.956-1.443.326-.06.519-.06.519-.06v-.193c0-.729-.193-1.056-.92-1.056-.725 0-1.244.52-1.244.52l-.133-.729s.592-.52 1.496-.52c.92 0 1.497.461 1.497 1.443v1.845c0 .52.06.848.46.848h.266l-.103.595zm-2.03-2.038c-.46.06-.979.327-.979.788 0 .52.385.729.786.729.592 0 .919-.461.919-.461V5.564s-.341-.06-.727.06zM30.397 7.662L30.397.104 31.182.104 31.182 7.662zM37.525 7.736H35.57V.967h1.704c1.304 0 2.164.52 2.164 1.577 0 1.25-.978 1.503-.978 1.503s1.437.193 1.437 1.71c.06 1.19-.8 1.98-2.37 1.98zm-.385-6.174h-.652V3.72h.785c.92 0 1.304-.52 1.304-1.116-.059-.714-.518-1.04-1.437-1.04zm-.074 2.886h-.652v2.425s.518.06 1.052.06c.845 0 1.57-.268 1.57-1.25 0-.848-.785-1.235-1.97-1.235zM44.268 3.794s-.266-.134-.652-.134c-.844 0-1.052.461-1.111.595v3.347h-.786V2.946h.786V3.6c.133-.193.46-.729 1.245-.729.385 0 .593.134.593.134l-.075.789zM48.981 7.662s-.192.06-.518.06c-.593 0-.727-.521-.727-.521s-.385.52-1.17.52c-.727 0-1.379-.387-1.379-1.309 0-1.25 1.512-1.384 1.957-1.443.326-.06.518-.06.518-.06v-.193c0-.729-.192-1.056-.919-1.056-.726 0-1.244.52-1.244.52l-.134-.729s.593-.52 1.512-.52 1.511.461 1.511 1.443v1.845c0 .52.06.848.46.848h.267l-.134.595zm-2.104-2.038c-.46.06-.978.327-.978.788 0 .52.385.729.785.729.593 0 .919-.461.919-.461V5.564c.06 0-.267-.06-.726.06zM51.59 7.736c-.978 0-1.438-.268-1.438-.268V6.74s.726.328 1.304.328c.652 0 1.053-.194 1.053-.595 0-.462-.46-.596-1.112-.789-.726-.268-1.245-.595-1.245-1.384 0-.981.786-1.309 1.63-1.309.727 0 1.112.194 1.112.194v.729s-.46-.268-1.17-.268c-.52 0-.846.193-.846.52 0 .387.193.596.92.79.725.192 1.377.52 1.377 1.383.178 1.13-.933 1.398-1.585 1.398zM55.324 1.89c-.266 0-.518-.194-.518-.521 0-.328.266-.521.518-.521.267 0 .52.193.52.52 0 .328-.268.521-.52.521zm-.4 5.772V3.005h.786v4.657h-.786zM57.607 7.662L57.607.104 58.392.104 58.392 7.662zM60.749 5.37c0 .983.652 1.637 1.63 1.637.919 0 1.437-.461 1.437-.461v.729s-.518.387-1.63.387c-1.245 0-2.223-.848-2.223-2.5 0-1.502.919-2.365 2.09-2.365 1.17 0 1.763.982 1.763 2.098v.327H60.75v.149zm1.245-1.77c-.653 0-1.053.387-1.112 1.116h2.09c-.06-.729-.386-1.116-.978-1.116zM65.847 1.89c-.267 0-.519-.194-.519-.521 0-.328.267-.521.519-.521.267 0 .519.193.519.52.074.328-.193.521-.52.521zm-.385 5.772V3.005h.785v4.657h-.785zM70.886 3.794s-.267-.134-.652-.134c-.845 0-1.053.461-1.112.595v3.347h-.785V2.946h.785V3.6c.134-.193.46-.729 1.245-.729.385 0 .593.134.593.134l-.074.789zM75.599 7.662s-.193.06-.52.06c-.592 0-.725-.521-.725-.521s-.386.52-1.171.52c-.726 0-1.378-.387-1.378-1.309 0-1.25 1.511-1.384 1.956-1.443.326-.06.519-.06.519-.06v-.193c0-.729-.193-1.056-.92-1.056-.725 0-1.244.52-1.244.52l-.134-.729s.593-.52 1.512-.52 1.512.461 1.512 1.443v1.845c0 .52.06.848.46.848h.266l-.133.595zm-2.09-2.038c-.46.06-.978.327-.978.788 0 .52.385.729.785.729.593 0 .92-.461.92-.461V5.564c.044 0-.282-.06-.727.06zM82.327 7.662V7.2s-.46.52-1.378.52c-.92 0-1.897-.729-1.897-2.231 0-1.77 1.17-2.5 2.282-2.5.726 0 1.052.194 1.052.194V.104h.786v7.558h-.845zm0-3.734s-.326-.328-1.052-.328c-.919 0-1.438.73-1.438 1.77 0 .983.519 1.637 1.379 1.637.785 0 1.111-.461 1.111-.461V3.928zM85.469 5.37c0 .983.652 1.637 1.63 1.637.92 0 1.438-.461 1.438-.461v.729s-.519.387-1.63.387c-1.245 0-2.223-.848-2.223-2.5 0-1.502.918-2.365 2.09-2.365 1.17 0 1.763.982 1.763 2.098v.327h-3.068v.149zm1.186-1.77c-.652 0-1.053.387-1.112 1.116h2.09c0-.729-.326-1.116-.978-1.116zM97.77 6.74c-.652.654-1.512.981-2.875.981-.845 0-2.283-.06-2.283-.06V.894h2.223c1.438 0 2.357.327 3.068 1.056.519.52.786 1.31.786 2.291-.074 1.056-.341 1.92-.92 2.5zm-.593-4.196c-.593-.655-1.378-.848-2.356-.848h-1.305v5.192s.653.06 1.512.06c1.764 0 2.742-.923 2.742-2.634 0-.788-.267-1.383-.593-1.77zM102.142 7.796c-1.245 0-2.164-.848-2.164-2.366 0-1.577 1.052-2.425 2.282-2.425 1.379 0 2.224.789 2.224 2.366-.045 1.577-1.097 2.425-2.342 2.425zm.074-4.136c-1.052 0-1.438.848-1.438 1.71 0 .923.386 1.712 1.438 1.712s1.378-.848 1.378-1.711c.06-.863-.34-1.711-1.378-1.711zM109.211 4.255s-.593-.595-1.378-.595c-.652 0-1.304.461-1.304 1.636 0 1.116.652 1.77 1.511 1.77.92 0 1.438-.46 1.438-.46v.728s-.519.387-1.63.387c-1.112 0-2.09-.848-2.09-2.5 0-1.502 1.052-2.365 2.223-2.365 1.112 0 1.63.595 1.63.595l-.4.804zM113.85 7.662V7.14s-.519.595-1.438.595c-1.511 0-1.511-1.25-1.511-1.904V3.005h.785v2.633c0 .848.193 1.384 1.052 1.384.653 0 1.053-.387 1.171-.52V2.96h.786v4.656h-.845v.045zM122.757 7.662V6.085 4.969c0-.655-.193-1.25-1.052-1.25-.652 0-1.052.328-1.245.521 0 0 .06.327.06.595v2.901h-.771V6.16 5.043c0-.654-.193-1.25-1.053-1.25-.726 0-1.111.328-1.17.462v3.54h-.786V3.14h.785v.52s.52-.594 1.438-.594c.726 0 1.112.327 1.304.729.193-.194.786-.73 1.705-.73 1.57 0 1.57 1.444 1.57 1.845v2.887h-.785v-.134zM125.825 5.37c0 .983.652 1.637 1.63 1.637.919 0 1.438-.461 1.438-.461v.729s-.519.387-1.63.387c-1.245 0-2.224-.848-2.224-2.5 0-1.502.92-2.365 2.09-2.365s1.764.982 1.764 2.098v.327h-3.068v.149zm1.245-1.77c-.652 0-1.052.387-1.112 1.116h2.09c-.06-.729-.385-1.116-.978-1.116zM133.606 7.662V6.085 4.969c0-.655-.193-1.25-1.053-1.25-.726 0-1.111.328-1.17.461v3.556h-.786V3.08h.785v.52s.52-.595 1.438-.595c1.571 0 1.571 1.443 1.571 1.845v2.886h-.785v-.074zM137.666 7.662c-1.111 0-1.378-.595-1.378-1.443 0-.387.06-2.366.06-2.366h-.653V3.2h.652v-.923l.786-.134V3.2h1.437v.654h-1.437v2.291c0 .73.192.848.726.848.46 0 .845-.193.845-.193v.729c-.06-.06-.46.134-1.038.134zM141.712 7.796c-1.245 0-2.163-.848-2.163-2.366 0-1.577 1.052-2.425 2.282-2.425 1.378 0 2.223.789 2.223 2.366-.045 1.577-1.156 2.425-2.342 2.425zm.074-4.136c-1.052 0-1.437.848-1.437 1.71 0 .923.385 1.712 1.437 1.712 1.053 0 1.379-.848 1.379-1.711 0-.863-.341-1.711-1.379-1.711zM146.618 7.736c-.978 0-1.438-.268-1.438-.268V6.74s.726.328 1.304.328c.653 0 1.053-.194 1.053-.595 0-.462-.46-.596-1.112-.789-.726-.268-1.245-.595-1.245-1.384 0-.981.786-1.309 1.63-1.309.727 0 1.112.194 1.112.194v.729s-.46-.268-1.17-.268c-.52 0-.846.193-.846.52 0 .387.193.596.92.79.725.192 1.378.52 1.378 1.383.118 1.13-.993 1.398-1.586 1.398z" transform="translate(.148 120.505)"/>
        </g>
        <g>
            <path fill="#FED77F" d="M37.051 71.083L74.102 47.413 37.051 23.729z" transform="translate(37.05)"/>
            <path fill="#62D4A3" d="M37.051 23.729L0 0.06 0 47.413 37.051 71.083z" transform="translate(37.05)"/>
            <path fill="#527EDD" d="M52.672 47.413c0 8.659-6.996 15.681-15.621 15.681V31.807c8.625-.074 15.62 6.948 15.62 15.606z" transform="translate(37.05)"/>
            <g fill="#FFF">
                <path d="M20.941 13.315L14.731 9.373 14.731 17.317 20.941 21.274zM6.313 3.957L.104.03.104 7.959 6.313 11.931zM13.635 8.644L7.425 4.701 7.425 12.631 13.635 16.603z" transform="translate(37.05) translate(8.003 44.631)"/>
            </g>
        </g>
        <g fill="#4C566F">
            <path d="M15.754 30.736C5.75 30.736 0 24.176 0 15.323 0 5.683 5.558.104 15.547.104c6.402 0 8.951 1.384 8.951 1.384v3.674S21.43 3.526 15.68 3.526c-6.136 0-11.634 2.752-11.634 11.351 0 8.6 5.691 12.274 12.479 12.274 5.231 0 7.973-1.25 7.973-1.25l.06 3.615c.073-.03-3.261 1.22-8.804 1.22zM38.296 30.736c-2.164 0-8.759-.06-8.759-.06V.18s4.698-.06 7.647-.06c5.943 0 9.737 2.5 9.737 7.082 0 5.504-4.372 6.947-4.372 6.947s6.595 1.056 6.595 7.736c0 5.311-3.734 8.852-10.848 8.852zM36.458 3.05c-1.378 0-3.068.06-3.068.06v9.833s1.438.134 3.394.134c4.12 0 6.017-2.425 6.017-5.177 0-3.467-2.282-4.85-6.343-4.85zm-.133 13.121c-1.438 0-2.935.06-2.935.06v11.024s2.416.193 4.58.193c3.72 0 6.92-1.175 6.92-5.504 0-4.196-3.393-5.773-8.565-5.773zM77.362 30.736c-3.2 0-5.617-1.77-8.433-5.177-2.415-2.886-5.231-6.888-5.231-6.888s-.593.06-.919.06c-1.245 0-4.905-.135-4.905-.135v12.2h-3.795V.164s5.617-.06 8.567-.06c4.253 0 6.995 1.056 8.684 2.886 1.438 1.577 2.164 3.615 2.164 6.04 0 4.79-2.934 7.543-5.884 8.718 1.053 1.444 2.416 3.407 4.254 5.312 3.66 3.942 4.965 4.522 6.595 4.522.46 0 .786-.06.786-.06v3.02c.014 0-.89.194-1.883.194zm-9.53-25.782c-1.244-1.31-3.2-1.83-6.016-1.83-1.897 0-3.987.06-3.987.06v12.065s3.009.134 4.372.134c2.356 0 3.987-.387 5.29-1.637 1.053-1.056 1.898-2.558 1.898-4.597.015-1.696-.519-3.139-1.556-4.195z" transform="translate(0 80.634)"/>
            <g>
                <path d="M16.258 30.677h-2.09v-3.273c-.919 1.502-3.334 3.273-6.269 3.273-3.986 0-7.84-3.273-7.84-9.581 0-7.022 5.098-10.697 10.715-10.697 2.357 0 3.202.461 3.202.461V5.088c-1.305-.193-2.416-.729-3.335-1.056V2.068c1.764-.327 4.965-1.31 6.21-1.964h2.223v25.589c1.304.193 2.416.729 3.334 1.056v1.964c-1.778.312-4.905 1.294-6.15 1.964zM13.976 13.94c-.92-.52-1.63-.848-3.068-.848-2.875 0-5.484 1.77-5.484 6.828 0 5.639 3.009 6.889 5.232 6.889 2.549 0 3.334-1.577 3.334-1.577l-.014-11.292zM34.16 30.736c-5.883 0-10.329-3.154-10.329-10.101 0-5.907 4.372-10.295 10.656-10.295 6.921 0 10.256 4.002 10.256 10.101.074 6.353-4.965 10.295-10.582 10.295zm.386-17.644c-4.12 0-4.965 3.808-4.965 7.409 0 3.808.92 7.602 4.773 7.602 3.794 0 4.905-3.615 4.905-7.483-.06-3.065-.845-7.528-4.713-7.528zM55.725 30.677c-5.291 0-9.145-3.541-9.145-9.909 0-6.62 5.617-10.369 10.063-10.369 4.372 0 6.595 1.964 7.055 2.366l-2.742 3.54c-.978-.922-2.934-2.618-5.365-2.618-1.956 0-3.987 1.384-3.987 5.579 0 5.118 2.876 7.409 6.27 7.409 2.223 0 3.986-.848 5.098-1.964l1.052 2.098c-1.245 1.428-3.987 3.868-8.3 3.868z" transform="translate(0 80.634) translate(84.18)"/>
            </g>
            <g>
                <path d="M3.601 7.677C1.32 7.677.074 6.174.074 4.195.074 2.023 1.32.788 3.601.788c1.438 0 2.03.328 2.03.328v.848s-.725-.387-1.956-.387c-1.378 0-2.608.655-2.608 2.559 0 1.904 1.304 2.752 2.816 2.752 1.17 0 1.764-.268 1.764-.268v.789c-.09 0-.816.268-2.046.268zM7.514 5.311c0 .982.652 1.637 1.63 1.637.919 0 1.438-.462 1.438-.462v.73s-.519.386-1.63.386c-1.245 0-2.224-.848-2.224-2.5 0-1.502.92-2.365 2.09-2.365s1.764.982 1.764 2.098v.327H7.514v.15zm1.17-1.77c-.651 0-1.052.387-1.11 1.116h2.089c.015-.73-.311-1.116-.978-1.116zM15.22 7.602V6.025 4.91c0-.654-.192-1.25-1.052-1.25-.726 0-1.111.328-1.17.462v3.54h-.786V3.006h.785v.52s.52-.594 1.438-.594c1.571 0 1.571 1.443 1.571 1.83v2.886h-.785v-.045zM19.281 7.602c-1.111 0-1.378-.595-1.378-1.443 0-.387.06-2.365.06-2.365h-.653v-.655h.652v-.907l.786-.134v1.056h1.437v.655h-1.437v2.29c0 .73.192.849.726.849.46 0 .845-.194.845-.194v.73c-.06-.075-.46.118-1.038.118zM24.172 3.734s-.267-.134-.652-.134c-.845 0-1.052.461-1.112.595v3.348h-.785V2.886h.785v.655c.134-.194.46-.73 1.245-.73.386 0 .593.135.593.135l-.074.788zM28.885 7.602s-.193.06-.519.06c-.593 0-.726-.521-.726-.521s-.385.52-1.17.52c-.727 0-1.38-.386-1.38-1.308 0-1.25 1.498-1.384 1.957-1.444.326-.06.519-.06.519-.06v-.192c0-.73-.193-1.057-.919-1.057s-1.245.521-1.245.521l-.133-.729s.593-.52 1.497-.52c.918 0 1.496.46 1.496 1.442v1.83c0 .521.06.848.46.848h.267l-.104.61zm-2.03-2.097c-.46.06-.979.327-.979.788 0 .52.386.729.786.729.593 0 .919-.461.919-.461V5.445s-.326 0-.727.06zM30.382 7.602L30.382.06 31.167.06 31.167 7.602zM37.51 7.602h-1.956V.848h1.704c1.305 0 2.164.52 2.164 1.577 0 1.25-.978 1.503-.978 1.503s1.438.193 1.438 1.71c.044 1.176-.8 1.964-2.372 1.964zm-.4-6.1h-.652v2.173h.786c.918 0 1.304-.521 1.304-1.116-.06-.73-.519-1.056-1.438-1.056zm-.06 2.887H36.4v2.425s.519.06 1.052.06c.845 0 1.571-.269 1.571-1.25-.074-.908-.8-1.235-1.971-1.235zM44.18 3.734s-.267-.134-.653-.134c-.844 0-1.052.461-1.111.595v3.348h-.786V2.886h.786v.655c.133-.194.46-.73 1.245-.73.385 0 .593.135.593.135l-.075.788zM48.937 7.602s-.193.06-.519.06c-.593 0-.726-.521-.726-.521s-.385.52-1.17.52c-.727 0-1.38-.386-1.38-1.308 0-1.25 1.498-1.384 1.957-1.444.326-.06.519-.06.519-.06v-.192c0-.73-.193-1.057-.919-1.057s-1.245.521-1.245.521l-.133-.729s.592-.52 1.497-.52c.904 0 1.496.46 1.496 1.442v1.83c0 .521.06.848.46.848h.267l-.104.61zm-2.09-2.097c-.46.06-.978.327-.978.788 0 .52.385.729.785.729.593 0 .92-.461.92-.461V5.445s-.267 0-.727.06zM51.56 7.677c-.978 0-1.438-.268-1.438-.268v-.73s.727.328 1.305.328c.652 0 1.052-.193 1.052-.595 0-.461-.46-.595-1.112-.788-.726-.268-1.245-.596-1.245-1.384 0-.982.786-1.31 1.63-1.31.727 0 1.112.194 1.112.194v.73s-.46-.269-1.17-.269c-.52 0-.845.194-.845.521 0 .387.192.595.919.789.726.193 1.378.52 1.378 1.383.178 1.13-.934 1.399-1.586 1.399zM55.28 1.77c-.267 0-.519-.193-.519-.52 0-.328.267-.521.519-.521.267 0 .519.193.519.52 0 .328-.252.521-.52.521zm-.385 5.832V2.946h.785v4.656h-.785zM57.562 7.602L57.562.06 58.348.06 58.348 7.602zM60.704 5.311c0 .982.652 1.637 1.63 1.637.92 0 1.438-.462 1.438-.462v.73s-.519.386-1.63.386c-1.245 0-2.223-.848-2.223-2.5 0-1.502.919-2.365 2.09-2.365 1.17 0 1.763.982 1.763 2.098v.327h-3.068v.15zm1.245-1.77c-.652 0-1.052.387-1.111 1.116h2.09c-.06-.73-.386-1.116-.979-1.116zM65.802 1.77c-.266 0-.518-.193-.518-.52 0-.328.266-.521.518-.521.267 0 .52.193.52.52 0 .328-.194.521-.52.521zm-.385 5.832V2.946h.786v4.656h-.786zM70.841 3.734s-.266-.134-.652-.134c-.845 0-1.052.461-1.111.595v3.348h-.786V2.886h.786v.655c.133-.194.46-.73 1.245-.73.385 0 .592.135.592.135l-.074.788zM75.54 7.602s-.193.06-.52.06c-.592 0-.726-.521-.726-.521s-.385.52-1.17.52c-.727 0-1.379-.386-1.379-1.308 0-1.25 1.497-1.384 1.957-1.444.326-.06.518-.06.518-.06v-.192c0-.73-.192-1.057-.919-1.057-.726 0-1.244.521-1.244.521l-.134-.729s.593-.52 1.497-.52c.904 0 1.497.46 1.497 1.442v1.83c0 .521.06.848.46.848h.266l-.104.61zm-2.09-2.097c-.46.06-.978.327-.978.788 0 .52.385.729.785.729.593 0 .919-.461.919-.461V5.445c.06 0-.267 0-.726.06zM82.209 7.602v-.461s-.46.52-1.379.52-1.897-.728-1.897-2.23c0-1.771 1.171-2.5 2.283-2.5.726 0 1.052.193 1.052.193V.044h.785v7.543l-.844.015zm0-3.734s-.327-.327-1.053-.327c-.919 0-1.437.729-1.437 1.77 0 .982.518 1.637 1.378 1.637.785 0 1.112-.462 1.112-.462V3.868zM85.41 5.311c0 .982.652 1.637 1.63 1.637.919 0 1.438-.462 1.438-.462v.73s-.52.386-1.63.386c-1.246 0-2.224-.848-2.224-2.5 0-1.502.92-2.365 2.09-2.365s1.764.982 1.764 2.098v.327H85.41v.15zm1.17-1.77c-.652 0-1.052.387-1.111 1.116h2.09c0-.73-.326-1.116-.978-1.116zM97.696 6.68c-.652.654-1.497.982-2.875.982-.845 0-2.283-.06-2.283-.06V.848h2.223c1.438 0 2.357.327 3.068 1.056.519.521.786 1.31.786 2.291-.074.982-.341 1.83-.92 2.485zm-.593-4.255c-.593-.655-1.378-.848-2.356-.848h-1.305v5.177s.652.06 1.497.06c1.764 0 2.742-.923 2.742-2.619.015-.729-.252-1.309-.578-1.77zM102.068 7.677c-1.245 0-2.164-.848-2.164-2.366 0-1.577 1.052-2.425 2.282-2.425 1.379 0 2.223.789 2.223 2.366-.059 1.636-1.096 2.425-2.341 2.425zm.074-4.077c-1.052 0-1.438.848-1.438 1.711 0 .923.386 1.711 1.438 1.711s1.378-.848 1.378-1.71c-.015-.864-.34-1.712-1.378-1.712zM109.122 4.195s-.593-.595-1.378-.595c-.652 0-1.304.461-1.304 1.637 0 1.116.652 1.77 1.497 1.77.919 0 1.437-.461 1.437-.461v.729s-.518.387-1.63.387c-1.112 0-2.09-.848-2.09-2.5 0-1.502 1.053-2.365 2.223-2.365 1.112 0 1.63.595 1.63.595l-.385.803zM113.761 7.602v-.52s-.519.595-1.437.595c-1.497 0-1.497-1.25-1.497-1.905V2.946h.785v2.618c0 .848.193 1.384 1.052 1.384.652 0 1.053-.387 1.171-.521v-3.54h.786v4.656h-.845v.06h-.015zM122.653 7.602V6.025 4.91c0-.654-.192-1.25-1.052-1.25-.652 0-1.052.328-1.245.521 0 0 .06.328.06.596v2.886h-.786V6.1 4.984c0-.655-.193-1.25-1.052-1.25-.727 0-1.112.327-1.171.461v3.541h-.77V3.08h.785v.52s.518-.595 1.437-.595c.726 0 1.112.327 1.304.73.193-.194.786-.73 1.705-.73 1.57 0 1.57 1.443 1.57 1.83v2.901h-.785v-.134zM125.721 5.311c0 .982.652 1.637 1.63 1.637.92 0 1.438-.462 1.438-.462v.73s-.519.386-1.63.386c-1.245 0-2.223-.848-2.223-2.5 0-1.502.918-2.365 2.09-2.365 1.17 0 1.763.982 1.763 2.098v.327h-3.068v.15zm1.186-1.77c-.652 0-1.053.387-1.112 1.116h2.09c0-.73-.326-1.116-.978-1.116zM133.502 7.602V6.025 4.91c0-.654-.193-1.25-1.052-1.25-.727 0-1.112.328-1.171.462v3.54h-.786V3.006h.786v.52s.518-.594 1.437-.594c1.571 0 1.571 1.443 1.571 1.83v2.886h-.785v-.045zM137.548 7.602c-1.112 0-1.379-.595-1.379-1.443 0-.387.06-2.365.06-2.365h-.652v-.655h.652v-.907l.785-.134v1.056h1.438v.655h-1.438v2.29c0 .73.193.849.726.849.46 0 .845-.194.845-.194v.73c-.118-.075-.444.118-1.037.118zM141.609 7.677c-1.245 0-2.164-.848-2.164-2.366 0-1.577 1.052-2.425 2.282-2.425 1.378 0 2.223.789 2.223 2.366-.06 1.636-1.17 2.425-2.341 2.425zm.059-4.077c-1.052 0-1.438.848-1.438 1.711 0 .923.386 1.711 1.438 1.711s1.378-.848 1.378-1.71c0-.864-.326-1.712-1.378-1.712zM146.5 7.677c-.979 0-1.438-.268-1.438-.268v-.73s.726.328 1.304.328c.652 0 1.052-.193 1.052-.595 0-.461-.46-.595-1.111-.788-.727-.268-1.245-.596-1.245-1.384 0-.982.785-1.31 1.63-1.31.726 0 1.111.194 1.111.194v.73s-.459-.269-1.17-.269c-.52 0-.845.194-.845.521 0 .387.193.595.919.789.726.193 1.378.52 1.378 1.383.119 1.13-.993 1.399-1.586 1.399z" transform="translate(0 80.634) translate(0 40.317)"/>
            </g>
        </g>
    </g>
</svg>
