<svg xmlns="http://www.w3.org/2000/svg" width="113" height="24" viewBox="0 0 113 24">
    <g fill="#AEB5C9">
        <g>
            <path d="M12.002 23.159c-7.595 0-11.893-4.951-11.893-11.64C.109 4.274 4.31.024 11.845.024c4.842 0 6.75 1.05 6.75 1.05v2.802S16.3 2.632 11.953 2.632c-4.649 0-8.79 2.101-8.79 8.597 0 6.448 4.298 9.249 9.442 9.249 3.948 0 6.049-.954 6.049-.954l.048 2.693c0 .048-2.5.942-6.701.942zM29.087 23.159c-1.654 0-6.593-.049-6.593-.049V.133s3.55-.048 5.796-.048c4.492 0 7.341 1.895 7.341 5.348 0 4.202-3.344 5.192-3.344 5.192s4.998.797 4.998 5.844c0 4.045-2.85 6.69-8.198 6.69zM27.638 2.282c-1.05 0-2.342.048-2.342.048v7.39s1.098.096 2.596.096c3.151 0 4.552-1.847 4.552-3.9.048-2.535-1.703-3.634-4.806-3.634zm-.097 9.889c-1.098 0-2.197.048-2.197.048v8.344s1.847.144 3.453.144c2.85 0 5.253-.893 5.253-4.141-.013-3.2-2.56-4.395-6.509-4.395zM58.62 23.159c-2.402 0-4.25-1.353-6.399-3.9-1.799-2.198-3.948-5.192-3.948-5.192s-.447.048-.7.048c-.954 0-3.743-.097-3.743-.097v9.189h-2.85V.085s4.25-.049 6.496-.049c3.248 0 5.3.797 6.593 2.15 1.098 1.195 1.594 2.752 1.594 4.551 0 3.647-2.198 5.7-4.444 6.593.749 1.099 1.848 2.548 3.2 3.997 2.753 2.946 3.743 3.453 4.999 3.453.35 0 .603-.048.603-.048v2.294c.049-.012-.652.133-1.4.133zm-7.196-19.38c-.953-1.002-2.402-1.4-4.552-1.4-1.4 0-3.042.048-3.042.048v9.092s2.294.096 3.296.096c1.8 0 3.043-.301 3.997-1.243.797-.749 1.449-1.896 1.449-3.453.048-1.292-.35-2.391-1.148-3.14z" transform="translate(.709 .47)"/>
        </g>
        <g>
            <path d="M12.352 23.159h-1.594v-2.452c-.7 1.147-2.5 2.452-4.745 2.452-3.043 0-5.94-2.452-5.94-7.245 0-5.3 3.851-8.042 8.09-8.042 1.798 0 2.45.35 2.45.35V3.829c-1.002-.145-1.799-.556-2.5-.797V1.533C9.467 1.28 11.858.531 12.812.036h1.702V19.32c1.002.145 1.8.555 2.5.797v1.497c-1.353.302-3.755 1.002-4.661 1.546zm-1.739-12.642c-.7-.399-1.195-.652-2.294-.652-2.197 0-4.141 1.352-4.141 5.143 0 4.25 2.294 5.192 3.948 5.192 1.896 0 2.548-1.195 2.548-1.195v-8.488h-.06zM25.9 23.159c-4.444 0-7.8-2.343-7.8-7.595 0-4.444 3.296-7.74 8.09-7.74 5.251 0 7.8 2.995 7.8 7.595-.05 4.793-3.84 7.74-8.09 7.74zm.253-13.282c-3.103 0-3.803 2.898-3.803 5.542 0 2.898.7 5.699 3.598 5.699 2.898 0 3.694-2.753 3.694-5.65.049-2.247-.543-5.591-3.49-5.591zM42.188 23.11c-3.997 0-6.943-2.692-6.943-7.45 0-4.998 4.25-7.848 7.643-7.848 3.296 0 4.999 1.497 5.349 1.8l-2.101 2.692c-.749-.7-2.246-1.944-4.093-1.944-1.45 0-2.995 1.05-2.995 4.202 0 3.851 2.198 5.59 4.745 5.59 1.703 0 3.043-.652 3.852-1.449l.797 1.594c-.857 1.014-2.958 2.813-6.254 2.813z" transform="translate(64.461 .47)"/>
        </g>
    </g>
</svg>
